<?xml version="1.0" encoding="UTF-8" standalone="no"?>
<!-- Created with Inkscape (http://www.inkscape.org/) -->

<svg
   version="1.1"
   id="svg119"
   width="1122.5601"
   height="793.91998"
   viewBox="0 0 1122.5601 793.91998"
   sodipodi:docname="Logotipo KFT 2023_vertical (5).png"
   xmlns:inkscape="http://www.inkscape.org/namespaces/inkscape"
   xmlns:sodipodi="http://sodipodi.sourceforge.net/DTD/sodipodi-0.dtd"
   xmlns="http://www.w3.org/2000/svg"
   xmlns:svg="http://www.w3.org/2000/svg">
  <defs
     id="defs123" />
  <sodipodi:namedview
     id="namedview121"
     pagecolor="#ffffff"
     bordercolor="#000000"
     borderopacity="0.25"
     inkscape:showpageshadow="2"
     inkscape:pageopacity="0.0"
     inkscape:pagecheckerboard="0"
     inkscape:deskcolor="#d1d1d1"
     showgrid="false" />
  <g
     inkscape:groupmode="layer"
     inkscape:label="Image"
     id="g125">
    <path
       style="fill:#000000;stroke-width:0.568144"
       d="m 285.42741,708.00907 c -9.31959,-1.01904 -18.40211,-4.65017 -25.61931,-10.2424 -7.5309,-5.8353 -14.13299,-16.10694 -16.61892,-25.85588 -1.35492,-5.31375 -1.37647,-16.66201 -0.042,-22.11855 5.3566,-21.90245 24.42063,-36.19847 48.27139,-36.19847 6.48019,0 10.7702,0.63101 16.21076,2.38438 15.24112,4.91184 26.39727,16.16913 31.1853,31.46793 1.78689,5.70967 2.20162,16.04679 0.90212,22.48852 -4.99658,24.76948 -28.05758,40.94276 -54.2893,38.07447 z m 10.91702,-17.61931 c 6.93716,-1.31934 14.12085,-6.29749 18.13099,-12.56449 4.7234,-7.38159 6.12654,-17.9477 3.50849,-26.42018 -2.14466,-6.94052 -7.99884,-14.38518 -13.53625,-17.2137 -8.42383,-4.30299 -19.91482,-3.89848 -27.56673,0.9704 -8.10316,5.15596 -12.90163,13.75808 -13.37531,23.97762 -0.42765,9.22627 2.1095,16.24832 8.22759,22.77139 6.70801,7.15207 15.5574,10.20082 24.61122,8.47896 z m 423.66656,17.61931 c -9.3196,-1.01904 -18.40211,-4.65017 -25.61932,-10.2424 -7.53089,-5.8353 -14.13298,-16.10694 -16.61892,-25.85588 -1.35491,-5.31375 -1.37648,-16.66201 -0.042,-22.11855 5.35663,-21.90245 24.42066,-36.19847 48.27142,-36.19847 6.48017,0 10.77017,0.63101 16.21075,2.38438 15.24111,4.91184 26.39726,16.16913 31.18528,31.46793 1.78691,5.70967 2.20163,16.04679 0.90213,22.48852 -4.99657,24.76948 -28.05759,40.94276 -54.28928,38.07447 z M 730.928,690.38976 c 6.93717,-1.31934 14.12084,-6.29749 18.13099,-12.56449 4.7234,-7.38159 6.12654,-17.9477 3.50849,-26.42018 -2.14465,-6.94052 -7.99882,-14.38518 -13.53624,-17.2137 -8.42384,-4.30299 -19.91483,-3.89848 -27.56674,0.9704 -8.10317,5.15596 -12.90163,13.75808 -13.3753,23.97762 -0.42766,9.22627 2.1095,16.24832 8.22758,22.77139 6.70803,7.15207 15.55742,10.20082 24.61122,8.47896 z M 367.20016,660.80255 v -46.09843 l 9.47984,0.15592 9.47981,0.15611 22.14947,29.95372 22.14945,29.95367 0.1468,-30.09591 0.1468,-30.09595 h 9.63987 9.63981 v 46.08466 46.08467 h -9.31392 -9.31399 l -22.03163,-29.74601 -22.03169,-29.746 -0.1468,29.746 -0.14697,29.74601 h -9.92342 -9.9235 z m 116.87235,0.0142 v -46.08466 h 32.90581 32.90579 v 8.24973 8.24972 H 527.19046 504.4968 v 11.6634 11.66341 h 20.70797 20.70796 v 8.53419 8.5342 H 525.20477 504.4968 v 17.63734 17.63734 h -10.21214 -10.21215 z m 91.34197,-0.0421 v -46.12677 l 24.82119,0.22771 c 27.56985,0.2529 28.11687,0.31701 36.45168,4.27108 4.99363,2.36897 10.85905,7.91825 12.97568,12.27632 5.84015,12.02463 3.72557,29.25216 -4.66876,38.03682 -1.94617,2.03659 -6.74206,5.66409 -9.31717,7.04725 -0.20589,0.11055 17.92402,28.08558 19.05269,29.39876 0.81119,0.94389 0.23516,0.99565 -11.07928,0.99565 h -11.93493 l -7.30996,-13.228 -7.30999,-13.22801 -10.62839,-0.15486 -10.62846,-0.15467 v 13.38276 13.38281 h -10.21216 -10.21214 z m 44.55112,2.26703 c 8.78823,-1.62918 13.31771,-6.92885 13.31771,-15.58224 0,-7.17482 -3.22601,-12.14245 -9.43784,-14.53296 -2.97394,-1.14443 -4.63791,-1.31033 -15.66702,-1.56192 l -12.33967,-0.28151 v 16.28927 16.28922 h 10.3916 c 5.71539,0 11.89624,-0.27894 13.73522,-0.61986 z m 182.38542,-2.23863 v -46.09843 l 9.47983,0.15593 9.47984,0.15593 22.14949,29.95373 22.14948,29.95367 0.14675,-30.09591 0.14686,-30.09597 h 9.63979 9.63991 v 46.08467 46.08466 h -9.31393 -9.31405 l -22.03166,-29.74599 -22.03166,-29.746 -0.14675,29.746 -0.14698,29.74599 h -9.9234 -9.92352 z m 135.02739,8.54796 v -37.55047 h -13.8999 -13.8999 v -8.5342 -8.53419 h 38.29554 38.29555 v 8.53419 8.5342 H 972.26992 958.37001 V 669.351 706.90146 H 947.87415 937.37841 Z M 143.66762,656.26522 c 0,-26.59825 0.19397,-48.36046 0.43113,-48.36046 0.23709,0 5.21551,4.80295 11.06315,10.67323 l 10.63204,10.6732 v 9.09353 9.09347 l 14.32946,-14.36174 14.32944,-14.3617 h 17.44168 c 9.59289,0 17.44166,0.19072 17.44166,0.42387 0,0.2331 -9.3811,9.83413 -20.84696,21.33556 l -20.84697,20.91163 21.55335,21.61997 21.55333,21.61989 h -18.50719 -18.50725 l -12.19075,-12.45708 -12.19082,-12.45709 -12.41229,12.45709 c -6.82677,6.85143 -12.60599,12.45708 -12.84268,12.45708 -0.23669,0 -0.43033,-21.7622 -0.43033,-48.36045 z M 424.68213,527.62858 c -15.57545,-1.81965 -27.39851,-12.15668 -31.16509,-27.24786 -1.48224,-5.93885 -0.85238,-17.76997 1.401,-26.31537 2.33886,-8.8696 5.05823,-16.10432 9.67894,-25.75006 7.86523,-16.41861 13.87752,-25.33799 47.36342,-70.26489 22.82835,-30.62805 58.38466,-73.74964 76.21451,-92.43066 4.46781,-4.68107 8.00866,-8.81053 7.86863,-9.1766 -0.47193,-1.23319 -23.761,-30.95729 -24.25531,-30.95729 -0.8841,0 -39.87022,39.34772 -47.63735,48.07912 -33.04276,37.14515 -58.40514,71.81896 -79.06789,108.0967 -3.02993,5.31965 -6.44216,10.64647 -7.58269,11.83738 -1.14052,1.19092 -3.72646,2.98311 -5.74648,3.98262 -3.15005,1.55871 -4.40162,1.84437 -8.79379,2.00737 -4.17813,0.15504 -5.72187,-0.0359 -8.3844,-1.03696 -10.71198,-4.02764 -16.39583,-15.64284 -13.00353,-26.57316 1.63112,-5.25559 14.20714,-26.76267 26.38381,-45.12058 18.71866,-28.22079 39.61111,-55.0544 64.45334,-82.78172 9.42736,-10.52221 36.45816,-37.96285 45.84801,-46.54304 3.82246,-3.49289 6.94952,-6.48283 6.94908,-6.64432 -5.1e-4,-0.16144 -11.47058,-15.0835 -25.48907,-33.16005 -18.50918,-23.86719 -25.57433,-32.59112 -25.80279,-31.86101 -0.17304,0.553 -5.0324,19.00705 -10.79849,41.00903 -5.76613,22.00197 -11.05364,41.1477 -11.75005,42.54611 -1.85923,3.73331 -5.92045,7.56904 -10.12529,9.56325 -3.27764,1.55447 -4.25551,1.74746 -8.7938,1.73545 -7.00519,-0.0181 -10.70782,-1.50764 -15.36786,-6.18086 -4.57055,-4.58349 -6.09825,-8.36925 -6.10408,-15.12686 -0.005,-4.52899 1.04419,-8.81474 16.50742,-67.49872 9.80934,-37.22718 17.08963,-63.806705 17.93571,-65.481066 0.78328,-1.55011 2.84534,-4.120946 4.58236,-5.712981 7.7972,-7.146346 19.18336,-7.501309 27.99762,-0.872841 1.02622,0.77175 19.2427,23.848848 40.481,51.282448 21.23833,27.4336 38.94596,50.22803 39.35037,50.65431 0.61375,0.64703 1.79898,-0.0675 7.17567,-4.32596 3.54225,-2.80555 12.9507,-9.96644 20.90767,-15.91308 67.22258,-50.23879 120.65181,-80.386028 155.73524,-87.872982 5.26191,-1.122906 7.88695,-1.331802 16.73657,-1.331802 9.21283,0 11.03616,0.156991 14.91626,1.284863 12.75525,3.707516 22.04642,11.48729 27.6302,23.135615 6.31128,13.165846 6.78586,31.003096 1.35403,50.887686 -11.17657,40.91456 -49.80096,96.26693 -102.23851,146.51731 -12.57251,12.04818 -14.50511,13.14944 -23.0755,13.14944 -4.95782,0 -6.0795,-0.19094 -8.89313,-1.51364 -4.51069,-2.12051 -8.06896,-5.6151 -10.25469,-10.07115 -1.72562,-3.51814 -1.8438,-4.14245 -1.8438,-9.74184 0,-8.8202 0.93237,-10.45833 12.14099,-21.33128 29.26693,-28.39061 50.13438,-52.66128 66.89126,-77.80055 14.11813,-21.18057 24.03683,-41.89097 27.03587,-56.45116 0.99108,-4.81181 1.14842,-11.47183 0.32247,-13.65043 -0.51883,-1.36848 -0.79279,-1.45935 -4.39689,-1.45867 -23.48413,0.006 -81.3372,32.31206 -149.08304,83.25414 -14.26746,10.72853 -23.54813,18.02531 -23.53298,18.50245 0.007,0.20271 8.55483,11.37769 18.99633,24.83327 13.38042,17.24273 19.35385,25.38844 20.23516,27.59391 0.95875,2.39936 1.25445,4.32679 1.26788,8.26385 0.0312,9.12277 -2.46283,12.91855 -21.78067,33.15044 -22.40411,23.46421 -53.33476,61.00831 -83.07078,100.83258 -16.94644,22.69577 -23.24789,31.55899 -29.42387,41.38579 -6.3201,10.05613 -13.10948,24.09926 -14.2806,29.538 l -0.38907,1.80697 3.40438,-0.79642 c 17.44609,-4.08145 50.93398,-19.23248 79.3928,-35.92003 25.38219,-14.88348 52.13698,-33.74251 75.04941,-52.90111 14.9672,-12.51511 14.92692,-12.47573 14.03813,-13.71911 -0.4178,-0.58443 -5.86563,-7.26318 -12.10639,-14.84167 -6.24076,-7.57847 -12.24039,-15.36887 -13.33253,-17.312 -1.93548,-3.44367 -1.98569,-3.69109 -1.98569,-9.79134 0,-5.76348 0.13102,-6.52595 1.65619,-9.64109 2.19306,-4.4792 5.77513,-7.9669 10.42779,-10.1529 3.367,-1.58203 4.38527,-1.78776 8.90765,-1.79986 4.37902,-0.0124 5.57464,0.20555 8.39678,1.52631 1.80993,0.84698 4.03062,2.06835 4.93496,2.7141 0.90427,0.64576 22.65609,26.77746 48.33737,58.07054 l 46.69312,56.89641 0.28367,-43.11731 0.28367,-43.11727 1.52053,-3.2533 c 2.12317,-4.54281 6.1072,-8.61214 10.60582,-10.83309 3.41932,-1.68812 4.19233,-1.84412 9.13704,-1.84412 4.88505,0 5.75437,0.17015 9.08938,1.77807 4.70383,2.268 8.20167,5.77253 10.43425,10.45429 l 1.76359,3.69815 0.15709,73.10962 c 0.0988,45.95801 -0.0506,74.46259 -0.40145,76.7527 -1.08981,7.10746 -5.58798,13.30066 -11.93188,16.42799 -2.84216,1.40109 -3.7377,1.5489 -9.38281,1.5489 -5.63865,0 -6.54178,-0.14863 -9.36113,-1.54099 -1.7162,-0.84756 -4.42418,-2.89577 -6.01768,-4.55157 -1.59354,-1.65581 -19.56648,-23.36464 -39.93988,-48.24182 -20.3734,-24.87719 -37.67454,-45.91844 -38.44709,-46.75836 l -1.4045,-1.52705 -7.44697,6.41309 c -42.72679,36.79491 -91.33996,68.04527 -137.93552,88.67003 -24.59591,10.88697 -39.42719,15.53844 -53.89746,16.90353 -6.89114,0.65012 -7.30599,0.64904 -13.15204,-0.0342 z"
       id="path237" />
  </g>
</svg>
